<?xml version="1.0" standalone="no"?>
<!DOCTYPE svg PUBLIC "-//W3C//DTD SVG 20010904//EN"
 "http://www.w3.org/TR/2001/REC-SVG-20010904/DTD/svg10.dtd">
<svg version="1.0" xmlns="http://www.w3.org/2000/svg"
 width="447.000000pt" height="447.000000pt" viewBox="0 0 447.000000 447.000000"
 preserveAspectRatio="xMidYMid meet">
<metadata>
Created by potrace 1.14, written by Peter Selinger 2001-2017
</metadata>
<g transform="translate(0.000000,447.000000) scale(0.100000,-0.100000)"
fill="#000000" stroke="none">
<path d="M2750 4155 c-10 -12 -16 -13 -26 -4 -11 9 -14 8 -14 0 0 -7 -4 -9
-10 -6 -5 3 -10 2 -10 -3 0 -6 -8 -9 -17 -8 -10 0 -17 -4 -16 -10 1 -7 -8 -9
-22 -6 -16 3 -25 0 -25 -8 0 -7 -6 -10 -14 -7 -8 3 -17 -1 -20 -9 -3 -9 -10
-12 -16 -9 -5 3 -10 1 -10 -4 0 -6 -7 -11 -15 -11 -8 0 -15 -4 -15 -9 0 -5
-13 -14 -30 -21 -16 -7 -27 -16 -24 -21 2 -5 -4 -14 -16 -21 -11 -7 -20 -19
-20 -26 0 -7 -7 -15 -15 -18 -8 -4 -13 -10 -10 -14 3 -5 -2 -13 -11 -18 -9 -5
-23 -23 -30 -41 -12 -28 -11 -32 7 -41 13 -8 19 -8 19 0 0 8 6 8 20 0 15 -8
20 -8 20 2 0 9 3 9 11 1 13 -13 42 -5 33 9 -4 6 5 2 20 -7 20 -14 26 -14 26
-4 0 11 2 11 10 -1 7 -11 10 -11 10 -2 0 10 5 10 20 2 16 -9 20 -8 21 7 0 16
1 16 8 -1 5 -14 10 -16 15 -7 6 9 11 9 24 -1 9 -8 13 -8 9 -2 -4 7 0 15 9 18
8 3 12 2 9 -3 -3 -5 -1 -12 5 -16 5 -3 10 -1 10 6 0 8 4 8 15 -1 12 -10 15
-10 15 1 0 11 2 11 10 -1 5 -8 10 -10 10 -4 0 8 11 9 35 4 21 -5 35 -4 35 2 0
5 5 6 12 2 14 -9 68 -11 68 -3 0 3 10 5 23 3 12 -1 22 -3 22 -4 0 -1 12 -3 28
-4 15 -1 27 2 27 7 0 4 5 5 12 1 17 -11 78 -10 78 1 0 6 5 3 10 -5 5 -8 10
-10 10 -4 0 8 11 9 35 4 24 -5 35 -4 35 4 0 6 5 4 10 -4 5 -8 10 -10 10 -5 0
6 34 10 85 9 46 -1 82 3 79 8 -3 4 -1 8 5 8 6 0 2 15 -8 33 -10 17 -24 31 -31
29 -6 -1 -9 2 -6 7 4 5 0 16 -8 24 -8 8 -12 17 -9 21 4 3 -2 6 -12 6 -10 0
-16 3 -12 6 8 8 -18 34 -33 34 -6 0 -8 5 -5 10 3 6 1 10 -4 10 -21 0 -26 3
-47 24 -11 11 -27 22 -35 24 -7 2 -15 7 -17 12 -2 4 -12 5 -24 2 -14 -3 -19
-1 -14 6 6 11 -5 15 -30 11 -4 0 -10 4 -13 9 -4 6 -18 12 -31 14 -14 2 -31 7
-37 11 -8 5 -13 3 -13 -4 0 -9 -3 -9 -14 0 -7 6 -27 11 -42 11 -16 -1 -41 1
-56 3 -16 2 -28 1 -28 -4 0 -5 -7 -6 -15 -3 -8 4 -15 1 -15 -6 0 -6 -5 -8 -10
-5 -6 4 -8 11 -5 16 10 15 -1 10 -15 -6z"/>
<path d="M2087 3672 c-16 -7 -36 -20 -43 -30 -11 -14 -10 -20 6 -37 20 -19 41
-24 117 -27 25 -1 40 -5 36 -11 -4 -6 -1 -7 7 -2 20 12 60 15 60 4 0 -6 6 -7
12 -3 18 11 48 12 48 2 0 -5 4 -6 10 -3 17 11 90 11 90 0 0 -7 3 -7 8 0 4 6
27 10 52 9 27 0 53 6 65 15 18 15 19 15 6 -1 -12 -16 -11 -18 8 -18 15 0 20 4
15 13 -6 9 -4 9 7 1 17 -13 178 -13 198 0 10 6 12 5 7 -2 -8 -13 6 -17 17 -6
4 4 110 7 236 7 164 0 228 3 224 11 -5 8 -3 8 8 0 17 -13 187 -13 208 0 9 6
12 5 8 -2 -10 -16 146 -10 166 6 16 13 16 21 3 60 -5 15 -13 21 -22 18 -8 -3
-14 -2 -14 2 0 9 -193 7 -208 -2 -6 -3 -13 0 -15 6 -4 10 -8 9 -16 -2 -8 -12
-11 -12 -11 -1 0 10 -3 11 -13 2 -8 -6 -17 -8 -20 -5 -9 9 -70 9 -85 0 -7 -4
-12 -4 -12 1 0 4 -140 8 -310 8 -200 0 -310 -4 -310 -10 0 -7 -3 -7 -8 0 -11
16 -497 13 -535 -3z"/>
<path d="M1306 3480 l-1249 -5 -8 -22 c-5 -13 -4 -25 2 -28 6 -4 6 -13 0 -23
-5 -9 -5 -26 0 -39 5 -13 5 -23 0 -23 -4 0 -6 -12 -4 -27 8 -61 9 -84 2 -95
-4 -7 -4 -19 1 -28 5 -9 5 -22 0 -30 -4 -7 -4 -24 1 -37 5 -12 5 -23 0 -23 -4
0 -6 -12 -4 -27 8 -61 9 -84 2 -95 -4 -7 -4 -19 1 -28 5 -9 5 -22 0 -30 -4 -7
-4 -24 1 -37 5 -12 5 -23 0 -23 -4 0 -6 -12 -4 -27 8 -61 9 -84 2 -95 -4 -7
-4 -19 1 -28 5 -9 5 -22 0 -30 -4 -7 -4 -24 1 -37 5 -12 5 -23 0 -23 -4 0 -6
-12 -4 -27 8 -61 9 -84 2 -95 -4 -7 -4 -19 1 -28 5 -9 5 -22 0 -30 -4 -7 -4
-24 1 -37 5 -12 5 -23 0 -23 -4 0 -6 -12 -4 -27 8 -61 9 -84 2 -95 -4 -7 -4
-19 1 -28 5 -9 5 -22 0 -30 -4 -7 -4 -24 1 -37 5 -12 5 -23 0 -23 -4 0 -6 -12
-4 -27 8 -61 9 -84 2 -95 -4 -7 -4 -19 1 -28 5 -9 5 -22 0 -30 -4 -7 -4 -24 1
-37 5 -12 5 -23 0 -23 -4 0 -6 -12 -4 -27 8 -61 9 -84 2 -95 -4 -7 -4 -19 1
-28 5 -9 5 -22 0 -30 -4 -7 -4 -24 1 -37 5 -12 5 -23 0 -23 -4 0 -6 -12 -4
-27 8 -61 9 -84 2 -95 -4 -7 -4 -19 1 -28 5 -9 5 -22 0 -30 -4 -7 -4 -24 1
-37 5 -12 5 -23 0 -23 -4 0 -6 -12 -4 -27 8 -61 9 -84 2 -95 -4 -7 -4 -19 1
-28 5 -9 5 -22 0 -30 -4 -7 -4 -24 1 -37 5 -12 5 -23 0 -23 -4 0 -6 -12 -4
-28 8 -60 9 -83 2 -94 -4 -7 -4 -19 1 -28 5 -9 5 -22 0 -30 -4 -7 -4 -24 1
-37 5 -12 5 -23 0 -23 -4 0 -6 -12 -4 -27 8 -61 9 -84 2 -95 -4 -7 -4 -19 1
-28 5 -9 5 -22 0 -30 -4 -7 -4 -24 1 -37 5 -12 5 -23 0 -23 -4 0 -6 -12 -4
-28 8 -60 9 -83 2 -94 -4 -7 -4 -19 1 -28 5 -9 5 -22 0 -30 -4 -7 -4 -24 1
-37 5 -12 5 -23 0 -23 -10 0 -6 -43 5 -61 5 -8 3 -9 -6 -4 -10 6 -12 4 -7 -9
4 -10 7 -30 7 -46 0 -23 3 -27 20 -23 13 3 20 0 20 -8 0 -12 2 -12 9 -1 11 17
21 17 32 0 7 -10 9 -10 9 0 0 10 5 10 21 1 15 -8 19 -8 15 0 -9 14 0 14 26 0
15 -8 19 -8 14 0 -9 14 0 14 26 0 15 -8 19 -8 14 0 -9 14 0 14 26 0 11 -6 18
-7 15 -2 -4 5 7 10 23 10 18 0 27 -4 23 -11 -4 -6 0 -5 8 1 12 10 18 10 27 1
9 -9 12 -9 12 0 0 14 21 12 32 -3 5 -6 8 -5 8 4 0 10 3 11 14 2 11 -9 16 -9
21 0 6 8 10 7 16 -2 7 -12 9 -12 9 0 0 10 3 11 14 2 11 -9 16 -9 21 0 6 8 10
7 16 -2 7 -12 9 -12 9 0 0 11 3 11 17 0 11 -10 14 -10 9 -1 -4 6 -3 12 3 12 5
0 12 -4 15 -8 6 -10 36 -9 53 1 6 4 14 1 16 -5 4 -10 6 -9 6 1 1 11 4 11 18 0
11 -10 14 -10 9 -1 -8 13 6 17 18 5 10 -10 46 -11 40 -1 -6 10 10 11 20 1 10
-10 46 -11 40 -1 -8 12 10 10 23 -3 27 -27 32 32 32 367 0 187 0 437 1 557 l0
217 431 0 c390 0 431 -2 425 -16 -3 -9 -9 -28 -13 -42 -3 -14 -12 -37 -19 -51
-8 -14 -14 -31 -14 -37 0 -6 -9 -33 -20 -60 -19 -47 -224 -614 -241 -664 -4
-14 -21 -63 -38 -109 -29 -79 -40 -150 -23 -152 4 -1 184 -2 401 -3 411 -1
421 0 421 40 0 8 9 36 21 61 11 25 22 53 24 62 2 10 10 34 19 54 8 21 15 38
15 40 0 3 4 16 47 130 20 55 37 105 38 112 6 40 5 40 513 39 269 0 494 -4 501
-8 6 -3 16 -21 21 -39 5 -18 26 -77 46 -132 20 -55 43 -118 50 -140 28 -81 76
-209 81 -214 8 -8 844 -7 844 1 0 7 -46 138 -60 173 -7 17 -47 127 -82 230 -5
17 -14 39 -19 50 -13 30 -80 218 -84 237 -2 9 -11 30 -19 47 -9 17 -16 33 -16
36 0 3 -1 7 -1 10 -1 3 -3 10 -4 15 -1 6 -4 12 -5 15 -1 3 -3 8 -5 13 -1 4 -5
14 -8 22 -4 8 -18 47 -31 85 -13 39 -43 122 -66 185 -23 63 -46 126 -50 140
-5 14 -22 63 -40 110 -17 47 -33 90 -34 95 -2 6 -7 21 -13 35 -5 14 -22 61
-38 105 -15 44 -32 86 -37 93 -6 6 -8 12 -5 12 4 0 -5 30 -19 68 -31 84 -35
96 -35 99 0 2 -8 23 -19 48 -11 25 -17 45 -14 45 2 0 0 9 -6 20 -9 17 -76 198
-100 270 -4 14 -22 63 -40 110 -17 47 -39 110 -49 140 -11 30 -23 66 -29 80
-13 31 -24 62 -28 75 -4 15 -73 207 -83 230 -4 11 -13 36 -20 55 -64 188 -74
210 -95 211 -95 4 -895 3 -1940 -1z m888 -759 c-3 -9 -35 -97 -71 -196 -36
-99 -69 -189 -74 -200 -11 -24 -68 -184 -73 -205 -2 -8 -18 -50 -34 -92 -16
-42 -27 -79 -24 -82 3 -3 1 -6 -5 -6 -7 0 -10 38 -9 111 1 61 -1 114 -4 119
-3 5 -65 8 -138 7 -72 -1 -132 2 -132 6 0 5 -5 5 -11 1 -16 -10 -229 -11 -229
-1 0 5 -5 5 -12 1 -16 -10 -108 -11 -108 -1 0 5 -5 5 -11 1 -16 -10 -149 -11
-149 -1 0 5 -5 5 -11 2 -16 -11 -189 -11 -189 -1 0 5 -6 3 -14 -3 -9 -8 -16
-8 -20 -2 -5 7 -10 417 -7 537 l1 21 665 0 c603 0 665 -2 659 -16z m677 -176
c2 -18 4 -25 12 -45 5 -12 21 -66 33 -112 1 -5 3 -11 4 -15 2 -5 4 -12 5 -18
1 -5 5 -17 8 -25 4 -8 13 -37 21 -65 8 -27 21 -74 30 -102 30 -99 44 -148 66
-223 11 -41 23 -82 27 -90 3 -8 7 -20 8 -26 4 -15 53 -179 75 -246 18 -54 14
-78 -10 -63 -5 3 -10 3 -10 -2 0 -4 -17 -7 -37 -6 -21 1 -38 2 -38 3 0 6 -57
4 -61 -2 -3 -5 -13 -4 -23 1 -10 6 -23 6 -31 1 -8 -5 -19 -5 -25 0 -6 5 -17 5
-25 0 -7 -4 -23 -4 -36 0 -12 5 -24 7 -27 4 -8 -8 -88 -10 -93 -2 -3 4 -15 3
-28 -2 -13 -5 -27 -6 -30 -3 -7 8 -76 10 -76 3 0 -3 -12 -5 -27 -4 -22 1 -28
6 -29 25 0 13 4 35 9 49 5 14 18 54 28 90 41 137 61 205 63 215 5 19 47 160
53 175 3 8 7 20 8 25 2 6 17 60 35 120 66 224 82 280 85 290 10 44 18 65 26
65 5 0 10 -7 10 -15z"/>
</g>
</svg>
