<?xml version="1.0" standalone="no"?>
<!DOCTYPE svg PUBLIC "-//W3C//DTD SVG 20010904//EN"
 "http://www.w3.org/TR/2001/REC-SVG-20010904/DTD/svg10.dtd">
<svg version="1.0" xmlns="http://www.w3.org/2000/svg"
 width="605.000000pt" height="605.000000pt" viewBox="0 0 605.000000 605.000000"
 preserveAspectRatio="xMidYMid meet">
<metadata>
Created by potrace 1.14, written by Peter Selinger 2001-2017
</metadata>
<g transform="translate(0.000000,605.000000) scale(0.100000,-0.100000)"
fill="#000000" stroke="none">
<path d="M0 3025 l0 -3025 3025 0 3025 0 0 3025 0 3025 -3025 0 -3025 0 0
-3025z m3940 838 c108 -286 368 -829 568 -1183 186 -329 499 -809 679 -1041
24 -30 43 -60 43 -66 0 -17 -789 -141 -811 -128 -11 7 -280 413 -361 545 -143
234 -295 505 -419 750 l-94 185 -3 -781 -2 -781 -152 -6 c-83 -4 -247 -7 -365
-7 l-213 0 0 1235 c0 679 3 1235 8 1235 4 0 95 7 202 15 236 19 560 58 730 89
69 13 132 24 141 25 12 1 26 -24 49 -86z"/>
</g>
</svg>
